<?xml version="1.0"?><svg width="100" height="100" viewBox="0 0 75 75" fill="none" xmlns="http://www.w3.org/2000/svg">
<path fill-rule="evenodd" clip-rule="evenodd" d="M37.5002 7.8125C28.0079 7.8125 20.3129 15.5076 20.3129 25C20.3129 30.9046 23.2903 36.1138 27.8256 39.208C17.3114 43.0595 9.73768 53.0092 9.38753 64.774C9.34902 66.0679 10.3667 67.148 11.6605 67.1865C12.9544 67.225 14.0345 66.2073 14.073 64.9135C14.4484 52.2992 24.7937 42.1875 37.4999 42.1875C50.2061 42.1875 60.5514 52.2992 60.9268 64.9135C60.9653 66.2073 62.0454 67.225 63.3393 67.1865C64.6331 67.148 65.6507 66.0679 65.6122 64.774C65.2621 53.0093 57.6886 43.0598 47.1745 39.2082C51.71 36.1139 54.6874 30.9047 54.6874 25C54.6874 15.5076 46.9925 7.8125 37.5002 7.8125ZM25.0004 25C25.0004 18.0964 30.5968 12.5 37.5002 12.5C44.4036 12.5 49.9999 18.0964 49.9999 25C49.9999 31.9036 44.4036 37.5 37.5002 37.5C30.5968 37.5 25.0004 31.9036 25.0004 25Z" fill="#24292E"/>
</svg>
